<svg width="24" height="24" viewBox="0 0 24 24" fill="none" xmlns="http://www.w3.org/2000/svg">
<path d="M12 21.8777C13.65 21.8777 15.025 23 16.4 23C19.7 23 23 14.5299 23 10.062C22.9625 8.69059 22.3633 7.38906 21.3331 6.44107C20.3029 5.49308 18.925 4.97549 17.5 5.00111C15.058 5.00111 13.1 6.52572 12 7.11863C10.9 6.52572 8.942 5.00111 6.5 5.00111C5.07413 4.97269 3.69467 5.48936 2.66378 6.43793C1.6329 7.38651 1.03462 8.68967 1 10.062C1 14.5299 4.3 23 7.6 23C8.975 23 10.35 21.8777 12 21.8777Z" fill="#735CFF"/>
<path opacity="0.5" d="M10 3C8 1 4 1 4 1C4 1 4 4 6 6C8 8 12 8 12 8C12 8 12 5 10 3Z" fill="#61FFFF"/>
</svg>
