<svg width="24" height="24" viewBox="0 0 24 24" fill="none" xmlns="http://www.w3.org/2000/svg">
<path d="M3 9.5C3 8.30653 3.47411 7.16193 4.31802 6.31802C5.16193 5.47411 6.30653 5 7.5 5H16.5C17.6935 5 18.8381 5.47411 19.682 6.31802C20.5259 7.16193 21 8.30653 21 9.5V20.75C21 21.3467 20.7629 21.919 20.341 22.341C19.919 22.7629 19.3467 23 18.75 23H5.25C4.65326 23 4.08097 22.7629 3.65901 22.341C3.23705 21.919 3 21.3467 3 20.75V9.5Z" fill="#735CFF"/>
<g opacity="0.5">
<path d="M8 22V19V17C8 16.4696 8.21071 15.9609 8.58579 15.5858C8.96086 15.2107 9.46957 15 10 15H14C14.5304 15 15.0391 15.2107 15.4142 15.5858C15.7893 15.9609 16 16.4696 16 17V19V22H8Z" fill="#61FFFF"/>
<path d="M8 10H16M8 22V17M8 22H16M8 22V19V17M8 17C8 16.4696 8.21071 15.9609 8.58579 15.5858C8.96086 15.2107 9.46957 15 10 15H14C14.5304 15 15.0391 15.2107 15.4142 15.5858C15.7893 15.9609 16 16.4696 16 17M16 17V22M16 17V19V22M9 5V3.5C9 3.10218 9.21071 2.72064 9.58579 2.43934C9.96086 2.15804 10.4696 2 11 2H13C13.5304 2 14.0391 2.15804 14.4142 2.43934C14.7893 2.72064 15 3.10218 15 3.5V5" stroke="#61FFFF" stroke-width="2" stroke-linecap="round" stroke-linejoin="round"/>
</g>
</svg>
