<svg width="24" height="24" viewBox="0 0 24 24" fill="none" xmlns="http://www.w3.org/2000/svg">
<path d="M14.6455 10.2513C15.9954 11.0307 15.9954 12.9791 14.6455 13.7585L4.05705 19.8718C2.70713 20.6511 1.01972 19.6769 1.01972 18.1182L1.01972 5.89164C1.01972 4.33288 2.70713 3.35866 4.05705 4.13804L14.6455 10.2513Z" fill="#FF51D9"/>
<path opacity="0.5" d="M17.9523 10.2442C19.3022 11.0236 19.3022 12.972 17.9523 13.7514L7.36379 19.8646C6.01386 20.644 4.32645 19.6698 4.32645 18.111L4.32645 5.88452C4.32645 4.32576 6.01386 3.35154 7.36378 4.13092L17.9523 10.2442Z" fill="#CA35FF"/>
<path opacity="0.5" d="M21.959 10.2442C23.309 11.0236 23.309 12.972 21.959 13.7514L11.3706 19.8646C10.0206 20.644 8.33323 19.6698 8.33323 18.111L8.33324 5.88452C8.33324 4.32576 10.0206 3.35154 11.3706 4.13092L21.959 10.2442Z" fill="#A635FF"/>
</svg>
