<svg width="24" height="24" viewBox="0 0 24 24" fill="none" xmlns="http://www.w3.org/2000/svg">
<path d="M4.37244 1C3.73909 1 3.22566 1.51343 3.22566 2.14678V15.4494C3.22566 16.0828 3.73909 16.5962 4.37244 16.5962H9.87699C10.5103 16.5962 11.0238 17.1096 11.0238 17.743V19.5778C11.0238 20.2112 11.5372 20.7246 12.1705 20.7246H17.6751C18.3084 20.7246 18.8219 20.2112 18.8219 19.5778V6.27519C18.8219 5.64184 18.3084 5.12841 17.6751 5.12841H12.1705C11.5372 5.12841 11.0238 4.61498 11.0238 3.98163V2.14678C11.0238 1.51343 10.5103 1 9.87699 1H4.37244Z" fill="#F46C00"/>
<path opacity="0.5" d="M6.14678 3C5.51343 3 5 3.51343 5 4.14678V17.6672C5 18.3005 5.51343 18.814 6.14678 18.814H11.3532C11.9866 18.814 12.5 19.3274 12.5 19.9607V21.8532C12.5 22.4866 13.0134 23 13.6468 23H18.8532C19.4866 23 20 22.4866 20 21.8532V8.33283C20 7.69948 19.4866 7.18605 18.8532 7.18605H13.6468C13.0134 7.18605 12.5 6.67262 12.5 6.03927V4.14678C12.5 3.51343 11.9866 3 11.3532 3H6.14678Z" fill="#FFA700"/>
</svg>
