<svg width="24" height="24" viewBox="0 0 24 24" fill="none" xmlns="http://www.w3.org/2000/svg">
<path d="M3.75 9.8C3.75 9.29374 4.16041 8.88333 4.66667 8.88333H12.1833C12.6896 8.88333 13.1 9.29374 13.1 9.8V22.0833C13.1 22.5896 12.6896 23 12.1833 23H4.66667C4.16041 23 3.75 22.5896 3.75 22.0833V9.8Z" fill="#FF5151"/>
<path opacity="0.5" d="M8.33333 1.91667C8.33333 1.4104 8.74374 1 9.25 1H16.7667C17.2729 1 17.6833 1.41041 17.6833 1.91667V22.0833C17.6833 22.5896 17.2729 23 16.7667 23H9.25C8.74374 23 8.33333 22.5896 8.33333 22.0833V1.91667Z" fill="#FF72CF"/>
</svg>
