<svg width="24" height="24" viewBox="0 0 24 24" fill="none" xmlns="http://www.w3.org/2000/svg">
<path d="M2.07842 14.6396L10.7499 10.2871C11.5126 9.90429 12.4874 9.90429 13.2501 10.2871L21.9216 14.6396C23.307 15.335 23.3691 16.9126 22.041 17.6745L13.3696 22.6487C12.5531 23.1171 11.4469 23.1171 10.6304 22.6487L1.95897 17.6745C0.630906 16.9126 0.693001 15.335 2.07842 14.6396Z" fill="#735CFF"/>
<path opacity="0.5" d="M2.07842 9.63962L10.7499 5.28714C11.5126 4.90429 12.4874 4.90429 13.2501 5.28714L21.9216 9.63962C23.307 10.335 23.3691 11.9126 22.041 12.6745L13.3696 17.6487C12.5531 18.1171 11.4469 18.1171 10.6304 17.6487L1.95897 12.6745C0.630906 11.9126 0.693001 10.335 2.07842 9.63962Z" fill="#61FFFF"/>
<path opacity="0.5" d="M2.07842 5.63962L10.7499 1.28714C11.5126 0.904288 12.4874 0.904288 13.2501 1.28714L21.9216 5.63962C23.307 6.335 23.3691 7.91263 22.041 8.67445L13.3696 13.6487C12.5531 14.1171 11.4469 14.1171 10.6304 13.6487L1.95897 8.67445C0.630906 7.91263 0.693001 6.335 2.07842 5.63962Z" fill="#61FFFF"/>
</svg>
