<svg width="24" height="24" viewBox="0 0 24 24" fill="none" xmlns="http://www.w3.org/2000/svg">
<path d="M3.68451 14.2353C3.86144 14.0946 4.07619 14.0125 4.3 14H19.7C19.9238 14.0125 20.1386 14.0946 20.3155 14.2353C20.4924 14.3761 20.6231 14.5687 20.69 14.7875L22.89 21.5375C23 21.65 23 21.7625 23 21.875C23 22.55 22.56 23 21.9 23H2.1C1.44 23 1 22.55 1 21.875C1 21.7625 1 21.65 1.11 21.5375L3.31 14.7875C3.37691 14.5687 3.50758 14.3761 3.68451 14.2353Z" fill="#735CFF"/>
<path opacity="0.5" fill-rule="evenodd" clip-rule="evenodd" d="M10.8657 17.0889C11.5263 17.6526 12.4737 17.6526 13.1343 17.0889C15.116 15.3978 19 11.5989 19 7.8C19 5.99653 18.2625 4.26692 16.9497 2.99167C15.637 1.71643 13.8565 1 12 1C10.1435 1 8.36301 1.71643 7.05025 2.99167C5.7375 4.26692 5 5.99653 5 7.8C5 11.5989 8.88399 15.3978 10.8657 17.0889ZM14.3333 7.8C14.3333 9.05185 13.2887 10.0667 12 10.0667C10.7113 10.0667 9.66667 9.05185 9.66667 7.8C9.66667 6.54815 10.7113 5.53333 12 5.53333C13.2887 5.53333 14.3333 6.54815 14.3333 7.8Z" fill="#B0FFFF"/>
</svg>
