<svg width="24" height="24" viewBox="0 0 24 24" fill="none" xmlns="http://www.w3.org/2000/svg">
<g opacity="0.5">
<path d="M12.7782 4.17157C14.3403 5.73367 14.3403 8.26633 12.7782 9.82843L10.3033 12.3033L4.64645 6.64645L7.12132 4.17157C8.68342 2.60948 11.2161 2.60948 12.7782 4.17157Z" fill="#61FFFF"/>
<path d="M11.1716 19.7782C9.60948 18.2161 9.60948 15.6834 11.1716 14.1213L13.6464 11.6464L19.3033 17.3033L16.8284 19.7782C15.2663 21.3403 12.7337 21.3403 11.1716 19.7782Z" fill="#61FFFF"/>
</g>
<path d="M2.17157 9.12131C0.609476 10.6834 0.609476 13.2161 2.17157 14.7782C3.73367 16.3403 6.26633 16.3403 7.82843 14.7782L10.3033 12.3033L4.64645 6.64644L2.17157 9.12131Z" fill="#735CFF"/>
<path d="M21.7782 14.8284C23.3403 13.2663 23.3403 10.7337 21.7782 9.17157C20.2161 7.60948 17.6834 7.60948 16.1213 9.17157L13.6464 11.6464L19.3033 17.3033L21.7782 14.8284Z" fill="#735CFF"/>
</svg>
