<svg width="24" height="24" viewBox="0 0 24 24" fill="none" xmlns="http://www.w3.org/2000/svg">
<path fill-rule="evenodd" clip-rule="evenodd" d="M4 18.2333C4 20.8659 6.01472 23 8.5 23C10.9853 23 13 20.8659 13 18.2333V1.91667C13 1.41041 12.6126 1 12.1346 1L4.86538 1C4.38745 1 4 1.41041 4 1.91667L4 18.2333ZM8.5 20.25C9.45588 20.25 10.2308 19.4292 10.2308 18.4167C10.2308 17.4041 9.45588 16.5833 8.5 16.5833C7.54412 16.5833 6.76923 17.4041 6.76923 18.4167C6.76923 19.4292 7.54412 20.25 8.5 20.25Z" fill="#00AA4E"/>
<path opacity="0.5" fill-rule="evenodd" clip-rule="evenodd" d="M4.63283 15.7637C3.3301 18.0708 4.1032 21.0209 6.35959 22.3529C8.61598 23.685 11.5012 22.8945 12.8039 20.5874L20.8783 6.28766C21.1288 5.84398 20.9802 5.27665 20.5462 5.02049L13.9465 1.12443C13.5126 0.868275 12.9577 1.02029 12.7072 1.46397L4.63283 15.7637ZM7.72043 19.9429C8.58828 20.4552 9.69798 20.1512 10.199 19.2638C10.7001 18.3764 10.4027 17.2418 9.5349 16.7295C8.66705 16.2172 7.55734 16.5212 7.05629 17.4085C6.55524 18.2959 6.85259 19.4306 7.72043 19.9429Z" fill="#2CD7A4"/>
</svg>
