<svg width="24" height="24" viewBox="0 0 24 24" fill="none" xmlns="http://www.w3.org/2000/svg">
<path fill-rule="evenodd" clip-rule="evenodd" d="M10.6727 2.66995C10.244 2.24111 9.66254 2.00013 9.05617 2H3.14325C2.84004 2 2.54925 2.12045 2.33485 2.33485C2.12045 2.54925 2 2.84004 2 3.14325V9.05617C2.00013 9.66254 2.24111 10.244 2.66995 10.6727L9.19107 17.1939C9.71069 17.7102 10.4135 18 11.146 18C11.8786 18 12.5814 17.7102 13.101 17.1939L17.1939 13.101C17.7102 12.5814 18 11.8786 18 11.146C18 10.4135 17.7102 9.7107 17.1939 9.19107L10.6727 2.66995ZM8 6.5C8 7.32843 7.32843 8 6.5 8C5.67157 8 5 7.32843 5 6.5C5 5.67157 5.67157 5 6.5 5C7.32843 5 8 5.67157 8 6.5Z" fill="#735CFF"/>
<path opacity="0.5" d="M17.5 14.5C19.4066 15.6256 19.7523 16.1185 21 18M22 22L20.6846 21.4363C17.1031 19.9013 14.4451 16.7803 13.5 13" stroke="#61FFFF" stroke-width="2" stroke-linecap="round"/>
</svg>
