<svg width="24" height="24" viewBox="0 0 24 24" fill="none" xmlns="http://www.w3.org/2000/svg">
<path fill-rule="evenodd" clip-rule="evenodd" d="M9.67273 4.66995C9.24402 4.24111 8.66254 4.00013 8.05617 4H2.14325C1.84004 4 1.54925 4.12045 1.33485 4.33485C1.12045 4.54925 1 4.84004 1 5.14325V11.0562C1.00013 11.6625 1.24111 12.244 1.66995 12.6727L8.19107 19.1939C8.71069 19.7102 9.41349 20 10.146 20C10.8786 20 11.5814 19.7102 12.101 19.1939L16.1939 15.101C16.7102 14.5814 17 13.8786 17 13.146C17 12.4135 16.7102 11.7107 16.1939 11.1911L9.67273 4.66995ZM7 8.5C7 9.32843 6.32843 10 5.5 10C4.67157 10 4 9.32843 4 8.5C4 7.67157 4.67157 7 5.5 7C6.32843 7 7 7.67157 7 8.5Z" fill="#735CFF"/>
<path opacity="0.5" fill-rule="evenodd" clip-rule="evenodd" d="M16.5886 7.5862C16.2135 7.21097 15.7047 7.00011 15.1741 7H10.0003C9.73504 7 9.4806 7.10539 9.29299 7.293C9.10539 7.4806 9 7.73504 9 8.00035V13.1741C9.00011 13.7047 9.21097 14.2135 9.5862 14.5886L15.2922 20.2946C15.7469 20.7464 16.3618 21 17.0028 21C17.6438 21 18.2587 20.7464 18.7134 20.2946L22.2946 16.7134C22.7464 16.2587 23 15.6438 23 15.0028C23 14.3618 22.7464 13.7469 22.2946 13.2922L16.5886 7.5862ZM14.25 10.9375C14.25 11.6624 13.6624 12.25 12.9375 12.25C12.2126 12.25 11.625 11.6624 11.625 10.9375C11.625 10.2126 12.2126 9.625 12.9375 9.625C13.6624 9.625 14.25 10.2126 14.25 10.9375Z" fill="#61FFFF"/>
</svg>
